<?xml version="1.0" encoding="UTF-8"?>
<svg width="32px" height="32px" viewBox="0 0 32 32" version="1.1" xmlns="http://www.w3.org/2000/svg" xmlns:xlink="http://www.w3.org/1999/xlink">
    <!-- Generator: Sketch 61.2 (89653) - https://sketch.com -->
    <title>Icons/Navigation Bar/News</title>
    <desc>Created with Sketch.</desc>
    <g id="Icons/Navigation-Bar/News" stroke="none" stroke-width="1" fill="none" fill-rule="evenodd">
        <rect id="Icon-Background" fill-opacity="0" fill="#000000" x="0" y="0" width="32" height="32"></rect>
        <path d="M17.4098383,6.09803444 L20.413,9.168 L24.5165983,10.2929701 C25.5810895,10.5819941 26.2165621,11.7068432 25.9316539,12.8032098 L24.832,16.993 L25.9320756,21.1870262 C26.2165621,22.2817779 25.5810895,23.406627 24.518133,23.6952323 L20.443,24.812 L17.4098383,27.9019656 C16.6297532,28.6993448 15.3702468,28.6993448 14.5901617,27.9019656 L11.586,24.831 L7.48340174,23.7070299 C6.41891054,23.4180059 5.78343787,22.2931568 6.0683461,21.1967902 L7.168,17.006 L6.06792437,12.8015949 C5.78343787,11.7068432 6.41891054,10.5819941 7.48186695,10.2933888 L11.587,9.167 L14.5901617,6.09803444 C15.3702468,5.30065519 16.6297532,5.30065519 17.4098383,6.09803444 Z M15.6608355,22.7852057 L13.0047569,24.3644975 L15.5173781,26.9328222 C15.7837121,27.2050607 16.2162879,27.2050607 16.4834552,26.9319719 L19.0049912,24.3636746 L16.350974,22.7856084 C16.1321131,22.6563209 15.872795,22.6564176 15.6608355,22.7852057 Z M8.2652136,18.0316515 L7.34143724,21.5519782 C7.24703652,21.915248 7.45948165,22.2912967 7.81995486,22.3891722 L11.2687614,23.334751 L11.2774495,20.1909799 C11.2771678,19.9473701 11.149007,19.720359 10.9436772,19.6012297 L8.2652136,18.0316515 Z M23.7347861,18.0202728 L21.0615914,19.5867633 C20.8520934,19.7158878 20.7225473,19.9469911 20.7225473,20.1784592 L20.7312386,23.3233725 L24.1815799,22.3773745 C24.5405183,22.2799178 24.7529635,21.903869 24.6589845,21.5422142 L23.7347861,18.0202728 Z M19.411,10.96 L17.0021206,12.3929942 C16.3849397,12.7681022 15.6185224,12.7687052 15.0008617,12.3948032 L12.588,10.96 L12.5961033,13.8082152 C12.5961033,14.5393519 12.2161541,15.217834 11.603043,15.5904685 L9.188,17.005 L11.5915566,18.4140888 C12.2113236,18.7736468 12.5961033,19.4560161 12.5961033,20.1917848 L12.588,23.039 L14.9978794,21.6070058 C15.6149683,21.2319537 16.3795746,21.2319537 17.0066512,21.6030465 L19.411,23.033 L19.4038967,20.1804059 C19.4038967,19.4582742 19.7858237,18.780964 20.396957,18.4095315 L22.811,16.994 L20.4084434,15.5859112 C19.7886764,15.2263532 19.4038967,14.5439839 19.4038967,13.8082152 L19.411,10.96 Z M11.2687614,10.6652486 L7.81842008,11.6112465 C7.45948165,11.7087033 7.24703652,12.084752 7.34112866,12.4468386 L8.26571494,15.9794336 L10.9384093,14.4132362 C11.1486024,14.2836854 11.2774527,14.0521713 11.2774527,13.8101619 L11.2687614,10.6652486 Z M20.7312386,10.665249 L20.7225505,13.8090201 C20.7228322,14.0526299 20.850993,14.279641 21.0563228,14.3987703 L23.7347864,15.9683485 L24.6585628,12.4480218 C24.7529635,12.084752 24.5405183,11.7087033 24.1800451,11.6108278 L20.7312386,10.665249 Z M15.5173781,7.06717778 L13.0047569,9.63550246 L15.6608355,11.2147943 C15.8718685,11.3430193 16.1281315,11.3430193 16.3391645,11.2147943 L18.9952431,9.63550246 L16.4826219,7.06717778 C16.2162879,6.79493931 15.7837121,6.79493931 15.5173781,7.06717778 Z" id="News" fill="#000000"></path>
    </g>
</svg>