<?xml version="1.0" encoding="UTF-8"?>
<svg width="32px" height="32px" viewBox="0 0 32 32" version="1.1" xmlns="http://www.w3.org/2000/svg" xmlns:xlink="http://www.w3.org/1999/xlink">
    <!-- Generator: Sketch 61.2 (89653) - https://sketch.com -->
    <title>Icons/Navigation Bar/Settings</title>
    <desc>Created with Sketch.</desc>
    <g id="Icons/Navigation-Bar/Settings" stroke="none" stroke-width="1" fill="none" fill-rule="evenodd">
        <rect id="Icon-Background" fill-opacity="0" fill="#000000" x="0" y="0" width="32" height="32"></rect>
        <path d="M27.1166667,23.0531915 C27.3283758,23.0531915 27.5,23.2248157 27.5,23.4365248 L27.5,24.1166667 C27.5,24.3283758 27.3283758,24.5 27.1166667,24.5 L4.88333333,24.5 C4.67162418,24.5 4.5,24.3283758 4.5,24.1166667 L4.5,23.4365248 C4.5,23.2248157 4.67162418,23.0531915 4.88333333,23.0531915 L27.1166667,23.0531915 Z M27.1166667,15.2765957 C27.3283758,15.2765957 27.5,15.4482199 27.5,15.6599291 L27.5,16.3400709 C27.5,16.5517801 27.3283758,16.7234043 27.1166667,16.7234043 L4.88333333,16.7234043 C4.67162418,16.7234043 4.5,16.5517801 4.5,16.3400709 L4.5,15.6599291 C4.5,15.4482199 4.67162418,15.2765957 4.88333333,15.2765957 L27.1166667,15.2765957 Z M27.1166667,7.5 C27.3283758,7.5 27.5,7.67162418 27.5,7.88333333 L27.5,8.56347518 C27.5,8.77518433 27.3283758,8.94680851 27.1166667,8.94680851 L4.88333333,8.94680851 C4.67162418,8.94680851 4.5,8.77518433 4.5,8.56347518 L4.5,7.88333333 C4.5,7.67162418 4.67162418,7.5 4.88333333,7.5 L27.1166667,7.5 Z" id="Settings" fill="#000000"></path>
    </g>
</svg>