<?xml version="1.0" encoding="UTF-8"?>
<svg width="32px" height="32px" viewBox="0 0 32 32" version="1.1" xmlns="http://www.w3.org/2000/svg" xmlns:xlink="http://www.w3.org/1999/xlink">
    <!-- Generator: Sketch 61.2 (89653) - https://sketch.com -->
    <title>Icons/Navigation Bar/Handoff</title>
    <desc>Created with Sketch.</desc>
    <g id="Icons/Navigation-Bar/Handoff" stroke="none" stroke-width="1" fill="none" fill-rule="evenodd">
        <rect id="Icon-Background" fill-opacity="0" fill="#000000" x="0" y="0" width="32" height="32"></rect>
        <path d="M22.8571429,4.5 C23.4883254,4.5 24,5.01487254 24,5.65 L24,26.35 C24,26.9851275 23.4883254,27.5 22.8571429,27.5 L9.14285714,27.5 C8.51167457,27.5 8,26.9851275 8,26.35 L8,5.65 C8,5.01487254 8.51167457,4.5 9.14285714,4.5 L22.8571429,4.5 Z M22.6285714,5.88 L9.37142857,5.88 L9.37142857,26.12 L22.6285714,26.12 L22.6285714,5.88 Z M16,22.9 C16.6311826,22.9 17.1428571,23.4148725 17.1428571,24.05 C17.1428571,24.6851275 16.6311826,25.2 16,25.2 C15.3688174,25.2 14.8571429,24.6851275 14.8571429,24.05 C14.8571429,23.4148725 15.3688174,22.9 16,22.9 Z M18.2857143,8.525 L18.2857143,9.1 C18.2857143,9.41756373 18.029877,9.675 17.7142857,9.675 L14.2857143,9.675 C13.970123,9.675 13.7142857,9.41756373 13.7142857,9.1 L13.7142857,8.525 L18.2857143,8.525 Z" id="Handoff" fill="#000000"></path>
    </g>
</svg>